<?xml version="1.0" encoding="UTF-8"?>
<svg id="_Слой_2" data-name="Слой 2" xmlns="http://www.w3.org/2000/svg" viewBox="0 0 2000 2000">
  <defs>
    <style>
      .cls-1 {
        fill: #2d2d2d;
      }

      .cls-1, .cls-2 {
        stroke-width: 0px;
      }

      .cls-2 {
        fill: #aad500;
      }
    </style>
  </defs>
  <circle class="cls-2" cx="1000" cy="1000" r="830.91"/>
  <g>
    <path class="cls-1" d="m501.36,1000c0-9.96.29-19.85.88-29.66-1.85,4.69-3.71,9.39-5.56,14.08-24.77,4.64-49.55,9.28-74.32,13.92v1.66c0,25.94,1.7,51.63,5.08,76.98,14.08-.85,28.16-1.71,42.24-2.56-12.46,10.9-24.93,21.81-37.39,32.72,5.08,27.06,12.13,53.7,21.1,79.81,13.76-5.17,27.53-10.35,41.29-15.53,12.98,1.58,25.97,3.17,38.95,4.76-20.85-54.78-32.27-114.17-32.27-176.18Zm-18.34-257.5c-5.48,10.93-10.61,22.07-15.4,33.39-.91,2.16-1.81,4.32-2.7,6.49,12.92,22.68,25.84,45.36,38.76,68.04-23.06,10.44-46.13,20.87-69.19,31.3-3.71,17.77-6.58,35.73-8.58,53.86,29.58-16.65,59.16-33.3,88.74-49.95,7.91-33.45,19.21-65.6,33.53-96.07-21.72-15.69-43.44-31.37-65.16-47.06Zm1078.25,137.31c-21.65-9.8-43.31-19.59-64.96-29.39,12.17-21.37,24.35-42.75,36.52-64.12-1.39-3.48-2.82-6.95-4.28-10.41-4.49-10.63-9.29-21.09-14.39-31.37-21.74,15.71-43.47,31.41-65.21,47.1,13.51,29.1,24.28,59.72,31.97,91.53,29.69,16.71,59.39,33.42,89.08,50.14-2.06-18-4.97-35.84-8.73-53.48Zm11.62,87.28c-21.86-14.23-43.72-28.45-65.58-42.67,6.33,14,12.67,28,19,42,15.66,2.94,31.32,5.87,46.98,8.81-.11-2.72-.25-5.43-.4-8.14Zm-73.7,255.45l-4.01.49-56.87,6.95h-.03c-83.09,158.42-249.23,266.74-440.19,266.74s-357.46-108.55-440.46-267.24l-53.48-6.53-3.35-.41-29.1,10.95c.45,1.02.9,2.03,1.37,3.04,28.64,63.6,68.27,120.92,117.92,170.57,52.86,52.86,114.43,94.36,182.99,123.36,71,30.03,146.4,45.26,224.11,45.26s153.1-15.23,224.11-45.26c68.56-29,130.12-70.5,182.98-123.36,50.76-50.76,91.05-109.54,119.84-174.84l-25.83-9.72Zm74.62-222.54c0-.79,0-1.59-.01-2.38-23.5-4.4-46.99-8.8-70.49-13.2-3.4-8.62-6.81-17.25-10.21-25.87,1.13,13.67,1.71,27.49,1.71,41.45,0,62.19-11.49,121.75-32.46,176.67l42.96-5.25c12.63,4.75,25.27,9.51,37.9,14.26,9.09-26.63,16.16-53.8,21.21-81.41-11.37-9.95-22.74-19.9-34.11-29.85,12.82.77,25.63,1.55,38.45,2.33,3.36-25.28,5.05-50.89,5.05-76.75Zm-1072.45,0c0-9.96.29-19.85.88-29.66-1.85,4.69-3.71,9.39-5.56,14.08-24.77,4.64-49.55,9.28-74.32,13.92v1.66c0,25.94,1.7,51.63,5.08,76.98,14.08-.85,28.16-1.71,42.24-2.56-12.46,10.9-24.93,21.81-37.39,32.72,5.08,27.06,12.13,53.7,21.1,79.81,13.76-5.17,27.53-10.35,41.29-15.53,12.98,1.58,25.97,3.17,38.95,4.76-20.85-54.78-32.27-114.17-32.27-176.18Zm-18.34-257.5c-5.48,10.93-10.61,22.07-15.4,33.39-.91,2.16-1.81,4.32-2.7,6.49,12.92,22.68,25.84,45.36,38.76,68.04-23.06,10.44-46.13,20.87-69.19,31.3-3.71,17.77-6.58,35.73-8.58,53.86,29.58-16.65,59.16-33.3,88.74-49.95,7.91-33.45,19.21-65.6,33.53-96.07-21.72-15.69-43.44-31.37-65.16-47.06Zm18.34,257.5c0-9.96.29-19.85.88-29.66-1.85,4.69-3.71,9.39-5.56,14.08-24.77,4.64-49.55,9.28-74.32,13.92v1.66c0,25.94,1.7,51.63,5.08,76.98,14.08-.85,28.16-1.71,42.24-2.56-12.46,10.9-24.93,21.81-37.39,32.72,5.08,27.06,12.13,53.7,21.1,79.81,13.76-5.17,27.53-10.35,41.29-15.53,12.98,1.58,25.97,3.17,38.95,4.76-20.85-54.78-32.27-114.17-32.27-176.18Zm-18.34-257.5c-5.48,10.93-10.61,22.07-15.4,33.39-.91,2.16-1.81,4.32-2.7,6.49,12.92,22.68,25.84,45.36,38.76,68.04-23.06,10.44-46.13,20.87-69.19,31.3-3.71,17.77-6.58,35.73-8.58,53.86,29.58-16.65,59.16-33.3,88.74-49.95,7.91-33.45,19.21-65.6,33.53-96.07-21.72-15.69-43.44-31.37-65.16-47.06Zm18.34,257.5c0-9.96.29-19.85.88-29.66-1.85,4.69-3.71,9.39-5.56,14.08-24.77,4.64-49.55,9.28-74.32,13.92v1.66c0,25.94,1.7,51.63,5.08,76.98,14.08-.85,28.16-1.71,42.24-2.56-12.46,10.9-24.93,21.81-37.39,32.72,5.08,27.06,12.13,53.7,21.1,79.81,13.76-5.17,27.53-10.35,41.29-15.53,12.98,1.58,25.97,3.17,38.95,4.76-20.85-54.78-32.27-114.17-32.27-176.18Zm-18.34-257.5c-5.48,10.93-10.61,22.07-15.4,33.39-.91,2.16-1.81,4.32-2.7,6.49,12.92,22.68,25.84,45.36,38.76,68.04-23.06,10.44-46.13,20.87-69.19,31.3-3.71,17.77-6.58,35.73-8.58,53.86,29.58-16.65,59.16-33.3,88.74-49.95,7.91-33.45,19.21-65.6,33.53-96.07-21.72-15.69-43.44-31.37-65.16-47.06Zm18.34,257.5c0-9.96.29-19.85.88-29.66-1.85,4.69-3.71,9.39-5.56,14.08-24.77,4.64-49.55,9.28-74.32,13.92v1.66c0,25.94,1.7,51.63,5.08,76.98,14.08-.85,28.16-1.71,42.24-2.56-12.46,10.9-24.93,21.81-37.39,32.72,5.08,27.06,12.13,53.7,21.1,79.81,13.76-5.17,27.53-10.35,41.29-15.53,12.98,1.58,25.97,3.17,38.95,4.76-20.85-54.78-32.27-114.17-32.27-176.18Zm-18.34-257.5c-5.48,10.93-10.61,22.07-15.4,33.39-.91,2.16-1.81,4.32-2.7,6.49,12.92,22.68,25.84,45.36,38.76,68.04-23.06,10.44-46.13,20.87-69.19,31.3-3.71,17.77-6.58,35.73-8.58,53.86,29.58-16.65,59.16-33.3,88.74-49.95,7.91-33.45,19.21-65.6,33.53-96.07-21.72-15.69-43.44-31.37-65.16-47.06Zm118.9-103.18l-18.74-38.45c-28.85,29.96-54.15,62.6-75.69,97.63l33.18,23.97,31.26,22.57c14.32-23.87,30.61-46.45,48.62-67.5l-18.63-38.22Zm69.97-65.11c-10.75-8.27-21.5-16.53-32.25-24.8-6.24,4.97-12.39,10.09-18.44,15.34,6,12.32,12.01,24.65,18.02,36.97,6.04,12.39,12.08,24.78,18.12,37.18,14.93-14.11,30.74-27.29,47.34-39.48-10.93-8.4-21.86-16.81-32.79-25.21Zm-170.53,425.79c0-9.96.29-19.85.88-29.66-1.85,4.69-3.71,9.39-5.56,14.08-24.77,4.64-49.55,9.28-74.32,13.92v1.66c0,25.94,1.7,51.63,5.08,76.98,14.08-.85,28.16-1.71,42.24-2.56-12.46,10.9-24.93,21.81-37.39,32.72,5.08,27.06,12.13,53.7,21.1,79.81,13.76-5.17,27.53-10.35,41.29-15.53,12.98,1.58,25.97,3.17,38.95,4.76-20.85-54.78-32.27-114.17-32.27-176.18Zm-18.34-257.5c-5.48,10.93-10.61,22.07-15.4,33.39-.91,2.16-1.81,4.32-2.7,6.49,12.92,22.68,25.84,45.36,38.76,68.04-23.06,10.44-46.13,20.87-69.19,31.3-3.71,17.77-6.58,35.73-8.58,53.86,29.58-16.65,59.16-33.3,88.74-49.95,7.91-33.45,19.21-65.6,33.53-96.07-21.72-15.69-43.44-31.37-65.16-47.06Zm18.34,257.5c0-9.96.29-19.85.88-29.66-1.85,4.69-3.71,9.39-5.56,14.08-24.77,4.64-49.55,9.28-74.32,13.92v1.66c0,25.94,1.7,51.63,5.08,76.98,14.08-.85,28.16-1.71,42.24-2.56-12.46,10.9-24.93,21.81-37.39,32.72,5.08,27.06,12.13,53.7,21.1,79.81,13.76-5.17,27.53-10.35,41.29-15.53,12.98,1.58,25.97,3.17,38.95,4.76-20.85-54.78-32.27-114.17-32.27-176.18Zm-18.34-257.5c-5.48,10.93-10.61,22.07-15.4,33.39-.91,2.16-1.81,4.32-2.7,6.49,12.92,22.68,25.84,45.36,38.76,68.04-23.06,10.44-46.13,20.87-69.19,31.3-3.71,17.77-6.58,35.73-8.58,53.86,29.58-16.65,59.16-33.3,88.74-49.95,7.91-33.45,19.21-65.6,33.53-96.07-21.72-15.69-43.44-31.37-65.16-47.06Zm188.87-168.29c-10.75-8.27-21.5-16.53-32.25-24.8-6.24,4.97-12.39,10.09-18.44,15.34,6,12.32,12.01,24.65,18.02,36.97,6.04,12.39,12.08,24.78,18.12,37.18,14.93-14.11,30.74-27.29,47.34-39.48-10.93-8.4-21.86-16.81-32.79-25.21Zm740.25,25.78l-18.4,37.74-18.94,38.86c18.78,21.83,35.69,45.31,50.49,70.19.03.06.07.13.11.19l.29-.21,31.62-22.84,32.55-23.51c-22.01-36.1-47.99-69.68-77.72-100.42Zm-56.33-51.15c-10.6,8.15-21.2,16.3-31.8,24.45-11.09,8.52-22.18,17.05-33.27,25.58,16.54,12.1,32.31,25.19,47.21,39.2,6.13-12.58,12.26-25.16,18.4-37.74,5.9-12.12,11.81-24.24,17.72-36.36-5.99-5.18-12.08-10.23-18.26-15.13Zm-683.92,25.37c-10.75-8.27-21.5-16.53-32.25-24.8-6.24,4.97-12.39,10.09-18.44,15.34,6,12.32,12.01,24.65,18.02,36.97,6.04,12.39,12.08,24.78,18.12,37.18,14.93-14.11,30.74-27.29,47.34-39.48-10.93-8.4-21.86-16.81-32.79-25.21Zm-188.87,168.29c-5.48,10.93-10.61,22.07-15.4,33.39-.91,2.16-1.81,4.32-2.7,6.49,12.92,22.68,25.84,45.36,38.76,68.04-23.06,10.44-46.13,20.87-69.19,31.3-3.71,17.77-6.58,35.73-8.58,53.86,29.58-16.65,59.16-33.3,88.74-49.95,7.91-33.45,19.21-65.6,33.53-96.07-21.72-15.69-43.44-31.37-65.16-47.06Zm18.34,257.5c0-9.96.29-19.85.88-29.66-1.85,4.69-3.71,9.39-5.56,14.08-24.77,4.64-49.55,9.28-74.32,13.92v1.66c0,25.94,1.7,51.63,5.08,76.98,14.08-.85,28.16-1.71,42.24-2.56-12.46,10.9-24.93,21.81-37.39,32.72,5.08,27.06,12.13,53.7,21.1,79.81,13.76-5.17,27.53-10.35,41.29-15.53,12.98,1.58,25.97,3.17,38.95,4.76-20.85-54.78-32.27-114.17-32.27-176.18Zm720.84-530.46c-71.01-30.04-146.41-45.26-224.11-45.26s-153.11,15.22-224.11,45.26c-32.33,13.67-63.11,30.13-92.15,49.24,11,8.46,22.26,17.11,32.98,25.36,12.55,9.65,24.36,18.73,34.15,26.26,73.28-42.67,158.4-67.12,249.13-67.12s175.2,24.26,248.29,66.63c9.93-7.63,21.89-16.83,34.59-26.59,10.6-8.16,21.72-16.71,32.58-25.06-28.81-18.9-59.32-35.18-91.35-48.72Zm-550.31,104.67c-10.75-8.27-21.5-16.53-32.25-24.8-6.24,4.97-12.39,10.09-18.44,15.34,6,12.32,12.01,24.65,18.02,36.97,6.04,12.39,12.08,24.78,18.12,37.18,14.93-14.11,30.74-27.29,47.34-39.48-10.93-8.4-21.86-16.81-32.79-25.21Zm-188.87,168.29c-5.48,10.93-10.61,22.07-15.4,33.39-.91,2.16-1.81,4.32-2.7,6.49,12.92,22.68,25.84,45.36,38.76,68.04-23.06,10.44-46.13,20.87-69.19,31.3-3.71,17.77-6.58,35.73-8.58,53.86,29.58-16.65,59.16-33.3,88.74-49.95,7.91-33.45,19.21-65.6,33.53-96.07-21.72-15.69-43.44-31.37-65.16-47.06Zm18.34,257.5c0-9.96.29-19.85.88-29.66-1.85,4.69-3.71,9.39-5.56,14.08-24.77,4.64-49.55,9.28-74.32,13.92v1.66c0,25.94,1.7,51.63,5.08,76.98,14.08-.85,28.16-1.71,42.24-2.56-12.46,10.9-24.93,21.81-37.39,32.72,5.08,27.06,12.13,53.7,21.1,79.81,13.76-5.17,27.53-10.35,41.29-15.53,12.98,1.58,25.97,3.17,38.95,4.76-20.85-54.78-32.27-114.17-32.27-176.18Zm-18.34-257.5c-5.48,10.93-10.61,22.07-15.4,33.39-.91,2.16-1.81,4.32-2.7,6.49,12.92,22.68,25.84,45.36,38.76,68.04-23.06,10.44-46.13,20.87-69.19,31.3-3.71,17.77-6.58,35.73-8.58,53.86,29.58-16.65,59.16-33.3,88.74-49.95,7.91-33.45,19.21-65.6,33.53-96.07-21.72-15.69-43.44-31.37-65.16-47.06Zm18.34,257.5c0-9.96.29-19.85.88-29.66-1.85,4.69-3.71,9.39-5.56,14.08-24.77,4.64-49.55,9.28-74.32,13.92v1.66c0,25.94,1.7,51.63,5.08,76.98,14.08-.85,28.16-1.71,42.24-2.56-12.46,10.9-24.93,21.81-37.39,32.72,5.08,27.06,12.13,53.7,21.1,79.81,13.76-5.17,27.53-10.35,41.29-15.53,12.98,1.58,25.97,3.17,38.95,4.76-20.85-54.78-32.27-114.17-32.27-176.18Zm-18.34-257.5c-5.48,10.93-10.61,22.07-15.4,33.39-.91,2.16-1.81,4.32-2.7,6.49,12.92,22.68,25.84,45.36,38.76,68.04-23.06,10.44-46.13,20.87-69.19,31.3-3.71,17.77-6.58,35.73-8.58,53.86,29.58-16.65,59.16-33.3,88.74-49.95,7.91-33.45,19.21-65.6,33.53-96.07-21.72-15.69-43.44-31.37-65.16-47.06Zm18.34,257.5c0-9.96.29-19.85.88-29.66-1.85,4.69-3.71,9.39-5.56,14.08-24.77,4.64-49.55,9.28-74.32,13.92v1.66c0,25.94,1.7,51.63,5.08,76.98,14.08-.85,28.16-1.71,42.24-2.56-12.46,10.9-24.93,21.81-37.39,32.72,5.08,27.06,12.13,53.7,21.1,79.81,13.76-5.17,27.53-10.35,41.29-15.53,12.98,1.58,25.97,3.17,38.95,4.76-20.85-54.78-32.27-114.17-32.27-176.18Zm-18.34-257.5c-5.48,10.93-10.61,22.07-15.4,33.39-.91,2.16-1.81,4.32-2.7,6.49,12.92,22.68,25.84,45.36,38.76,68.04-23.06,10.44-46.13,20.87-69.19,31.3-3.71,17.77-6.58,35.73-8.58,53.86,29.58-16.65,59.16-33.3,88.74-49.95,7.91-33.45,19.21-65.6,33.53-96.07-21.72-15.69-43.44-31.37-65.16-47.06Zm18.34,257.5c0-9.96.29-19.85.88-29.66-1.85,4.69-3.71,9.39-5.56,14.08-24.77,4.64-49.55,9.28-74.32,13.92v1.66c0,25.94,1.7,51.63,5.08,76.98,14.08-.85,28.16-1.71,42.24-2.56-12.46,10.9-24.93,21.81-37.39,32.72,5.08,27.06,12.13,53.7,21.1,79.81,13.76-5.17,27.53-10.35,41.29-15.53,12.98,1.58,25.97,3.17,38.95,4.76-20.85-54.78-32.27-114.17-32.27-176.18Zm-18.34-257.5c-5.48,10.93-10.61,22.07-15.4,33.39-.91,2.16-1.81,4.32-2.7,6.49,12.92,22.68,25.84,45.36,38.76,68.04-23.06,10.44-46.13,20.87-69.19,31.3-3.71,17.77-6.58,35.73-8.58,53.86,29.58-16.65,59.16-33.3,88.74-49.95,7.91-33.45,19.21-65.6,33.53-96.07-21.72-15.69-43.44-31.37-65.16-47.06Zm18.34,257.5c0-9.96.29-19.85.88-29.66-1.85,4.69-3.71,9.39-5.56,14.08-24.77,4.64-49.55,9.28-74.32,13.92v1.66c0,25.94,1.7,51.63,5.08,76.98,14.08-.85,28.16-1.71,42.24-2.56-12.46,10.9-24.93,21.81-37.39,32.72,5.08,27.06,12.13,53.7,21.1,79.81,13.76-5.17,27.53-10.35,41.29-15.53,12.98,1.58,25.97,3.17,38.95,4.76-20.85-54.78-32.27-114.17-32.27-176.18Zm-18.34-257.5c-5.48,10.93-10.61,22.07-15.4,33.39-.91,2.16-1.81,4.32-2.7,6.49,12.92,22.68,25.84,45.36,38.76,68.04-23.06,10.44-46.13,20.87-69.19,31.3-3.71,17.77-6.58,35.73-8.58,53.86,29.58-16.65,59.16-33.3,88.74-49.95,7.91-33.45,19.21-65.6,33.53-96.07-21.72-15.69-43.44-31.37-65.16-47.06Zm18.34,257.5c0-9.96.29-19.85.88-29.66-1.85,4.69-3.71,9.39-5.56,14.08-24.77,4.64-49.55,9.28-74.32,13.92v1.66c0,25.94,1.7,51.63,5.08,76.98,14.08-.85,28.16-1.71,42.24-2.56-12.46,10.9-24.93,21.81-37.39,32.72,5.08,27.06,12.13,53.7,21.1,79.81,13.76-5.17,27.53-10.35,41.29-15.53,12.98,1.58,25.97,3.17,38.95,4.76-20.85-54.78-32.27-114.17-32.27-176.18Zm0,0c0-9.96.29-19.85.88-29.66-1.85,4.69-3.71,9.39-5.56,14.08-24.77,4.64-49.55,9.28-74.32,13.92v1.66c0,25.94,1.7,51.63,5.08,76.98,14.08-.85,28.16-1.71,42.24-2.56-12.46,10.9-24.93,21.81-37.39,32.72,5.08,27.06,12.13,53.7,21.1,79.81,13.76-5.17,27.53-10.35,41.29-15.53,12.98,1.58,25.97,3.17,38.95,4.76-20.85-54.78-32.27-114.17-32.27-176.18Zm-78.22-30.34c-.11,2.1-.21,4.19-.29,6.29,16.94-3.18,33.89-6.35,50.83-9.53,6.33-14,12.67-28,19-42-23.18,15.08-46.36,30.16-69.54,45.24Z"/>
    <path class="cls-1" d="m1355.82,548.84c-21.69,16.67-43.38,33.35-65.07,50.03-48.31,37.15-96.62,74.3-144.93,111.44,4.67-24,9.33-48,14-72-54.04,33.58-108.09,67.15-162.13,100.72-54.17-33.5-108.33-67-162.5-100.5,4.67,24,9.33,48,14,72-48.17-37.03-96.33-74.07-144.5-111.11-21.68-16.67-43.36-33.34-65.04-50.01-13.82-10.63-27.64-21.25-41.46-31.88,7.67,15.74,15.34,31.48,23.02,47.22,12.04,24.72,24.09,49.43,36.14,74.15,31.95,65.54,63.89,131.09,95.84,196.63-10.67,18-21.33,36-32,54,31.33,35.67,62.67,71.33,94,107-24.33-5.67-48.67-11.33-73-17,27,33.33,54,66.67,81,100-17.67-2.67-35.33-5.33-53-8,50.33,43.67,100.67,87.33,151,131l18,69c6-14.67,12-29.33,18-44,6.93,1.08,14.27,1.95,22,2.5,21.99,1.58,41.82.25,58.81-2.27,5.94,14.52,11.88,29.03,17.82,43.55l18-69c50.33-43.67,100.67-87.33,151-131-17.67,2.67-35.33,5.33-53,8,27-33.33,54-66.67,81-100-24.33,5.67-48.67,11.33-73,17,31.33-35.67,62.67-71.33,94-107-10.67-18-21.33-36-32-54,32.05-65.75,64.09-131.49,96.14-197.24,12.04-24.7,24.08-49.4,36.12-74.1,7.58-15.55,15.16-31.11,22.74-46.66-13.67,10.51-27.33,21.02-41,31.53Zm-478.63,410.69c-18-32.67-36-65.33-54-98,36.33,32.67,72.67,65.33,109,98h-55Zm119.5,212.5c-14.5-8.17-29-16.33-43.5-24.5,14.5.17,29,.33,43.5.5,15.04-.24,30.09-.48,45.13-.72-15.04,8.24-30.09,16.48-45.13,24.72Zm0-231c-38.83-42.5-77.67-85-116.5-127.5,39.17,24.17,78.33,48.33,117.5,72.5,39.04-24.24,78.09-48.48,117.13-72.72-39.38,42.58-78.75,85.15-118.13,127.72Zm121.13,18.28h-55c36.33-32.67,72.67-65.33,109-98-18,32.67-36,65.33-54,98Zm-275.13,348.11c-16.33-53.33-32.67-106.67-49-160-34.33-38.33-68.67-76.67-103-115l57,3c-30-40.67-60-81.33-90-122l60,21c-13-13.67-26-27.33-39-41,10.67-16.33,21.33-32.67,32-49-27,1.33-54,2.67-81,4-27.17-19.62-54.33-39.24-81.5-58.86-21.72-15.69-43.44-31.37-65.16-47.06-23.11-16.69-46.23-33.39-69.34-50.08,17.08,29.99,34.16,59.97,51.24,89.96,12.92,22.68,25.84,45.36,38.76,68.04-23.06,10.44-46.13,20.87-69.19,31.3-4.94,2.23-9.87,4.47-14.81,6.7-15,25.33-30,50.67-45,76,17.08-9.61,34.15-19.22,51.23-28.84,29.58-16.65,59.16-33.3,88.74-49.95,9.01-5.07,18.02-10.14,27.03-15.21-13.15,33.31-26.29,66.61-39.44,99.92-1.85,4.69-3.71,9.39-5.56,14.08-24.77,4.64-49.55,9.28-74.32,13.92-64.23,12.03-128.45,24.05-192.68,36.08,8,6.33,16,12.67,24,19l-12,18c25.67,22.67,51.33,45.33,77,68-2-9.33-4-18.67-6-28,30.33-11,60.67-22,91-33,7.92-.48,15.84-.96,23.76-1.44,14.08-.85,28.16-1.71,42.24-2.56-12.46,10.9-24.93,21.81-37.39,32.72-30.2,26.42-60.4,52.85-90.61,79.28l-30-18c16.67,27.33,33.33,54.67,50,82,10.67-13.67,21.33-27.33,32-41,19.91-7.49,39.81-14.98,59.71-22.47,13.76-5.17,27.53-10.35,41.29-15.53,12.98,1.58,25.97,3.17,38.95,4.76,30.68,3.74,61.36,7.49,92.05,11.24l138,90c-5.33-24.67-10.67-49.33-16-74,31.67,34.67,63.33,69.33,95,104Zm-419.54-337.76c-4.49,2.92-8.97,5.84-13.46,8.76,4.39-.82,8.78-1.65,13.17-2.47,16.94-3.18,33.89-6.35,50.83-9.53,6.33-14,12.67-28,19-42-23.18,15.08-46.36,30.16-69.54,45.24Zm668.67,260.65c-3.67,28.67-7.33,57.34-11,86-9,7.67-18,15.34-27,23v-35c-12.38,16.91-24.75,33.81-37.13,50.72h-37.87c-12.55-16.83-25.09-33.67-37.63-50.5v35c-9-7.67-18-15.33-27-23-3.67-28.67-7.33-57.33-11-86-23.67-20.33-47.33-40.67-71-61,17.33,56.33,34.67,112.67,52,169,18.33,24,36.67,48,55,72,19.5,9.17,39,18.33,58.5,27.5,19.38-9.24,38.75-18.48,58.13-27.72,18.33-24,36.67-48,55-72,17.33-56.33,34.67-112.66,52-169-23.67,20.34-47.33,40.67-71,61Zm666.5-158.89l-12-18c8-6.33,16-12.67,24-19-65.5-12.27-131.01-24.53-196.51-36.8-23.5-4.4-46.99-8.8-70.49-13.2-3.4-8.62-6.81-17.25-10.21-25.87-11.6-29.38-23.19-58.75-34.79-88.13,7.54,4.24,15.07,8.48,22.61,12.73,29.69,16.71,59.39,33.42,89.08,50.14,18.44,10.38,36.87,20.75,55.31,31.13-15-25.33-30-50.67-45-76-6.35-2.87-12.69-5.74-19.04-8.61-21.65-9.8-43.31-19.59-64.96-29.39,12.17-21.37,24.35-42.75,36.52-64.12,17.83-31.29,35.65-62.58,53.48-93.88-24.05,17.37-48.1,34.74-72.15,52.1-21.74,15.71-43.47,31.41-65.21,47.1-26.21,18.94-52.43,37.87-78.64,56.8-27-1.33-54-2.67-81-4,10.67,16.33,21.33,32.67,32,49-13,13.67-26,27.33-39,41l60-21c-30,40.67-60,81.33-90,122l57-3c-34.33,38.33-68.67,76.67-103,115-16.33,53.33-32.67,106.67-49,160,31.67-34.67,63.33-69.33,95-104-5.33,24.67-10.67,49.33-16,74l138-90c29.35-3.58,58.69-7.17,88.04-10.75l42.96-5.25c12.63,4.75,25.27,9.51,37.9,14.26,21.03,7.91,42.06,15.82,63.1,23.74,10.67,13.67,21.33,27.33,32,41,16.67-27.33,33.33-54.67,50-82l-30,18c-31.3-27.38-62.59-54.77-93.89-82.15-11.37-9.95-22.74-19.9-34.11-29.85,12.82.77,25.63,1.55,38.45,2.33,9.18.56,18.37,1.11,27.55,1.67,30.33,11,60.67,22,91,33-2,9.33-4,18.67-6,28,25.67-22.67,51.33-45.33,77-68Zm-185.42-104.33c-21.86-14.23-43.72-28.45-65.58-42.67,6.33,14,12.67,28,19,42,15.66,2.94,31.32,5.87,46.98,8.81,5.67,1.06,11.35,2.13,17.02,3.19-5.81-3.78-11.61-7.56-17.42-11.33Z"/>
    <g>
      <path class="cls-1" d="m747.68,1203.42c5.33,24.67,10.67,49.33,16,74l-138-90c-30.69-3.75-61.37-7.5-92.05-11.24-12.98-1.59-25.97-3.18-38.95-4.76-13.76,5.18-27.53,10.36-41.29,15.53-19.9,7.49-39.8,14.98-59.71,22.47-10.67,13.67-21.33,27.33-32,41-4.38-7.18-8.76-14.36-13.14-21.54-12.28-20.15-24.57-40.31-36.86-60.46l30,18c30.21-26.43,60.41-52.86,90.61-79.28,12.46-10.91,24.93-21.82,37.39-32.72-14.08.85-28.16,1.71-42.24,2.56-7.92.48-15.84.96-23.76,1.44-30.33,11-60.67,22-91,33,2,9.33,4,18.67,6,28-25.67-22.67-51.33-45.33-77-68l12-18c-8-6.33-16-12.67-24-19,64.23-12.03,128.45-24.05,192.68-36.08,24.77-4.64,49.55-9.28,74.32-13.92,1.85-4.69,3.71-9.39,5.56-14.08,13.15-33.31,26.29-66.61,39.44-99.92-9.01,5.07-18.02,10.14-27.03,15.21-29.58,16.65-59.16,33.3-88.74,49.95-17.08,9.62-34.15,19.23-51.23,28.84,15-25.33,30-50.67,45-76,4.94-2.23,9.87-4.47,14.81-6.7,23.06-10.43,46.13-20.86,69.19-31.3-12.92-22.68-25.84-45.36-38.76-68.04-17.08-29.99-34.16-59.97-51.24-89.96,23.11,16.69,46.23,33.39,69.34,50.08,21.72,15.69,43.44,31.37,65.16,47.06,27.17,19.62,54.33,39.24,81.5,58.86,27-1.33,54-2.67,81-4-10.67,16.33-21.33,32.67-32,49,13,13.67,26,27.33,39,41l-60-21c30,40.67,60,81.33,90,122l-57-3c19.85,22.17,39.71,44.34,59.57,66.51,14.48,16.16,28.95,32.33,43.43,48.49,16.33,53.33,32.67,106.67,49,160-31.67-34.67-63.33-69.33-95-104Z"/>
      <path class="cls-1" d="m492.68,924.42c-6.33,14-12.67,28-19,42-16.94,3.18-33.89,6.35-50.83,9.53-4.39.82-8.78,1.65-13.17,2.47,4.49-2.92,8.97-5.84,13.46-8.76,23.18-15.08,46.36-30.16,69.54-45.24Z"/>
      <path class="cls-1" d="m1681.32,1139.42c2-9.33,4-18.67,6-28-30.33-11-60.67-22-91-33-9.18-.56-18.37-1.11-27.55-1.67-12.82-.78-25.63-1.56-38.45-2.33,11.37,9.95,22.74,19.9,34.11,29.85,31.3,27.38,62.59,54.77,93.89,82.15l30-18c-16.67,27.33-33.33,54.67-50,82-10.67-13.67-21.33-27.33-32-41-21.04-7.92-42.07-15.83-63.1-23.74-12.63-4.75-25.27-9.51-37.9-14.26l-42.96,5.25c-29.35,3.58-58.69,7.17-88.04,10.75l-138,90c5.33-24.67,10.67-49.33,16-74-31.67,34.67-63.33,69.33-95,104,16.33-53.33,32.67-106.67,49-160,34.33-38.33,68.67-76.67,103-115l-57,3c30-40.67,60-81.33,90-122l-60,21c13-13.67,26-27.33,39-41-10.67-16.33-21.33-32.67-32-49,27,1.33,54,2.67,81,4,26.21-18.93,52.43-37.86,78.64-56.8,21.74-15.69,43.47-31.39,65.21-47.1,24.05-17.36,48.1-34.73,72.15-52.1-17.83,31.3-35.65,62.59-53.48,93.88-12.17,21.37-24.35,42.75-36.52,64.12,21.65,9.8,43.31,19.59,64.96,29.39,6.35,2.87,12.69,5.74,19.04,8.61,15,25.33,30,50.67,45,76-18.44-10.38-36.87-20.75-55.31-31.13-29.69-16.72-59.39-33.43-89.08-50.14-7.54-4.25-15.07-8.49-22.61-12.73,11.6,29.38,23.19,58.75,34.79,88.13,3.4,8.62,6.81,17.25,10.21,25.87,23.5,4.4,46.99,8.8,70.49,13.2,65.5,12.27,131.01,24.53,196.51,36.8-8,6.33-16,12.67-24,19l12,18c-25.67,22.67-51.33,45.33-77,68Z"/>
      <path class="cls-1" d="m1590.32,978.42c-5.67-1.06-11.35-2.13-17.02-3.19-15.66-2.94-31.32-5.87-46.98-8.81-6.33-14-12.67-28-19-42,21.86,14.22,43.72,28.44,65.58,42.67,5.81,3.77,11.61,7.55,17.42,11.33Z"/>
      <path class="cls-1" d="m1162.82,1169.31c-17.33,56.34-34.67,112.67-52,169-18.33,24-36.67,48-55,72-19.38,9.24-38.75,18.48-58.13,27.72-19.5-9.17-39-18.33-58.5-27.5-18.33-24-36.67-48-55-72-17.33-56.33-34.67-112.67-52-169,.11.09.21.18.32.27,23.56,20.24,47.12,40.49,70.68,60.73,3.67,28.67,7.33,57.33,11,86,9,7.67,18,15.33,27,23v-35c12.54,16.83,25.08,33.67,37.63,50.5h37.87c12.38-16.91,24.75-33.81,37.13-50.72v35c9-7.66,18-15.33,27-23,3.67-28.66,7.33-57.33,11-86,15.46-13.27,30.91-26.55,46.36-39.83,8.21-7.05,16.43-14.11,24.64-21.17Z"/>
      <path class="cls-1" d="m1355.82,548.84c-21.69,16.67-43.38,33.35-65.07,50.03-48.31,37.15-96.62,74.3-144.93,111.44,4.67-24,9.33-48,14-72-54.04,33.58-108.09,67.15-162.13,100.72-54.17-33.5-108.33-67-162.5-100.5,4.67,24,9.33,48,14,72-48.17-37.03-96.33-74.07-144.5-111.11-21.68-16.67-43.36-33.34-65.04-50.01-13.82-10.63-27.64-21.25-41.46-31.88,7.67,15.74,15.34,31.48,23.02,47.22,12.04,24.72,24.09,49.43,36.14,74.15,31.95,65.54,63.89,131.09,95.84,196.63-10.67,18-21.33,36-32,54,31.33,35.67,62.67,71.33,94,107-24.33-5.67-48.67-11.33-73-17,27,33.33,54,66.67,81,100-17.67-2.67-35.33-5.33-53-8,50.33,43.67,100.67,87.33,151,131l18,69c6-14.67,12-29.33,18-44,6.93,1.08,14.27,1.95,22,2.5,21.99,1.58,41.82.25,58.81-2.27,5.94,14.52,11.88,29.03,17.82,43.55l18-69c50.33-43.67,100.67-87.33,151-131-17.67,2.67-35.33,5.33-53,8,27-33.33,54-66.67,81-100-24.33,5.67-48.67,11.33-73,17,31.33-35.67,62.67-71.33,94-107-10.67-18-21.33-36-32-54,32.05-65.75,64.09-131.49,96.14-197.24,12.04-24.7,24.08-49.4,36.12-74.1,7.58-15.55,15.16-31.11,22.74-46.66-13.67,10.51-27.33,21.02-41,31.53Zm-478.63,410.69c-18-32.67-36-65.33-54-98,36.33,32.67,72.67,65.33,109,98h-55Zm119.5,212.5c-14.5-8.17-29-16.33-43.5-24.5,14.5.17,29,.33,43.5.5,15.04-.24,30.09-.48,45.13-.72-15.04,8.24-30.09,16.48-45.13,24.72Zm0-231c-38.83-42.5-77.67-85-116.5-127.5,39.17,24.17,78.33,48.33,117.5,72.5,39.04-24.24,78.09-48.48,117.13-72.72-39.38,42.58-78.75,85.15-118.13,127.72Zm121.13,18.28h-55c36.33-32.67,72.67-65.33,109-98-18,32.67-36,65.33-54,98Z"/>
    </g>
    <path class="cls-1" d="m1525.03,1232.26c-28.79,65.3-69.08,124.08-119.84,174.84-52.86,52.86-114.42,94.36-182.98,123.36-71.01,30.03-146.41,45.26-224.11,45.26s-153.11-15.23-224.11-45.26c-68.56-29-130.13-70.5-182.99-123.36-49.65-49.65-89.28-106.97-117.92-170.57-.47-1.01-.92-2.02-1.37-3.04l29.1-10.95,3.35.41s.02.05.03.08c59.63,173.02,282.52,321.62,512,315,199.53-5.75,383.15-128.26,479-315l4.01-.49,25.83,9.72Z"/>
    <path class="cls-1" d="m601.92,639.32l18.63,38.22c-18.01,21.05-34.3,43.63-48.62,67.5l-31.26-22.57c17.85-29.92,38.41-57.72,61.25-83.15Z"/>
    <path class="cls-1" d="m998.18,462.03c101.71-.07,199.37,29.07,282.79,81.29-12.7,9.76-24.66,18.96-34.59,26.59-73.09-42.37-157.91-66.63-248.29-66.63s-175.85,24.45-249.13,67.12c-9.79-7.53-21.6-16.61-34.15-26.26,83.54-52.62,181.43-82.04,283.37-82.11Z"/>
    <path class="cls-1" d="m1457.32,723.92l-31.62,22.84c-.13.01-.27.01-.4.02-14.8-24.88-31.71-48.36-50.49-70.19l18.94-38.86c23.81,26.27,45.15,55.1,63.57,86.19Z"/>
    <path class="cls-1" d="m997.68,1423.84v14.19c-19.5-9.17-39-18.33-58.5-27.5-18.33-24-36.67-48-55-72-17.33-56.33-34.67-112.67-52-169,.11.09.21.18.32.27,22.34,55.4,44.69,110.8,67.03,166.2,16.35,20.96,32.7,41.92,49.05,62.87,16.36,8.32,32.73,16.65,49.1,24.97Z"/>
    <path class="cls-1" d="m747.68,1203.42c5.33,24.67,10.67,49.33,16,74l-138-90c-30.69-3.75-61.37-7.5-92.05-11.24-12.98-1.59-25.97-3.18-38.95-4.76-13.76,5.18-27.53,10.36-41.29,15.53-19.9,7.49-39.8,14.98-59.71,22.47-10.67,13.67-21.33,27.33-32,41-4.38-7.18-8.76-14.36-13.14-21.54,6.91-12.27,13.82-24.54,20.73-36.81,37.56-20.34,75.13-40.69,112.69-61.04,47.83,6.43,95.65,12.87,143.48,19.3,28.17,17.92,56.35,35.83,84.52,53.74-1.39-26.78-2.78-53.56-4.17-80.34,25.22,23.65,50.43,47.3,75.65,70.95-10.4-31.91-20.79-63.83-31.19-95.75,14.48,16.16,28.95,32.33,43.43,48.49,16.33,53.33,32.67,106.67,49,160-31.67-34.67-63.33-69.33-95-104Z"/>
    <path class="cls-1" d="m770.18,1071.53c17.67,2.67,35.33,5.33,53,8-27-33.33-54-66.67-81-100,24.33,5.67,48.67,11.33,73,17-31.33-35.67-62.67-71.33-94-107,10.67-18,21.33-36,32-54-31.95-65.54-63.89-131.09-95.84-196.63-12.05-24.72-24.1-49.43-36.14-74.15-7.68-15.74-15.35-31.48-23.02-47.22,65.43,105.54,130.87,211.09,196.3,316.63-11.82,17.04-23.65,34.09-35.47,51.13,40.34,49.04,80.69,98.09,121.04,147.13-27.48-6.43-54.96-12.87-82.44-19.3,26.09,31.13,52.18,62.26,78.27,93.39-19.13-4.18-38.27-8.35-57.4-12.52,34.24,36.18,68.47,72.36,102.7,108.54-50.33-43.67-100.67-87.33-151-131Z"/>
    <path class="cls-1" d="m997.68,1423.84v14.19c19.5-9.17,39-18.33,58.5-27.5,18.33-24,36.67-48,55-72,17.33-56.33,34.67-112.67,52-169-.11.09-.21.18-.32.27-22.34,55.4-44.69,110.8-67.03,166.2-16.35,20.96-32.7,41.92-49.05,62.87-16.36,8.32-32.73,16.65-49.1,24.97Z"/>
    <path class="cls-1" d="m1252.32,1203.42c-5.33,24.67-10.67,49.33-16,74l138-90c30.69-3.75,61.37-7.5,92.05-11.24,12.98-1.59,25.97-3.18,38.95-4.76,13.76,5.18,27.53,10.36,41.29,15.53,19.9,7.49,39.8,14.98,59.71,22.47,10.67,13.67,21.33,27.33,32,41,4.38-7.18,8.76-14.36,13.14-21.54-6.91-12.27-13.82-24.54-20.73-36.81-37.56-20.34-75.13-40.69-112.69-61.04-47.83,6.43-95.65,12.87-143.48,19.3-28.17,17.92-56.35,35.83-84.52,53.74,1.39-26.78,2.78-53.56,4.17-80.34-25.22,23.65-50.43,47.3-75.65,70.95,10.4-31.91,20.79-63.83,31.19-95.75-14.48,16.16-28.95,32.33-43.43,48.49-16.33,53.33-32.67,106.67-49,160,31.67-34.67,63.33-69.33,95-104Z"/>
    <path class="cls-1" d="m1224.82,1071.31c-17.67,2.67-35.33,5.33-53,8,27-33.33,54-66.67,81-100-24.33,5.67-48.67,11.33-73,17,31.33-35.67,62.67-71.33,94-107-10.67-18-21.33-36-32-54,31.95-65.54,63.89-131.09,95.84-196.63,12.05-24.72,24.1-49.43,36.14-74.15,7.68-15.74,15.35-31.48,23.02-47.22-65.43,105.54-130.87,211.09-196.3,316.63,11.82,17.04,23.65,34.09,35.47,51.13-40.34,49.04-80.69,98.09-121.04,147.13,27.48-6.43,54.96-12.87,82.44-19.3-26.09,31.13-52.18,62.26-78.27,93.39,19.13-4.18,38.27-8.35,57.4-12.52-34.24,36.18-68.47,72.36-102.7,108.54,50.33-43.67,100.67-87.33,151-131Z"/>
  </g>
</svg>