<?xml version="1.0" standalone="no"?>
<!DOCTYPE svg PUBLIC "-//W3C//DTD SVG 20010904//EN"
 "http://www.w3.org/TR/2001/REC-SVG-20010904/DTD/svg10.dtd">
<svg version="1.0" xmlns="http://www.w3.org/2000/svg"
 width="1167.000000pt" height="1167.000000pt" viewBox="0 0 1167.000000 1167.000000"
 preserveAspectRatio="xMidYMid meet">
<metadata>
Created by potrace 1.16, written by Peter Selinger 2001-2019
</metadata>
<g transform="translate(0.000000,1167.000000) scale(0.100000,-0.100000)"
fill="#000000" stroke="none">
<path d="M5525 10130 c-289 -16 -665 -79 -935 -157 -225 -65 -583 -206 -770
-305 -196 -103 -400 -223 -400 -234 0 -6 14 2 50 26 43 30 216 127 343 194
137 72 367 170 562 239 782 276 1720 308 2552 87 174 -46 503 -167 703 -258
73 -33 346 -182 446 -243 37 -22 68 -38 70 -36 8 8 -399 236 -516 289 -586
266 -1126 389 -1765 401 -110 2 -263 1 -340 -3z"/>
<path d="M2800 9401 c0 -6 4 -11 8 -11 4 0 71 -48 149 -107 215 -165 561 -430
728 -559 83 -64 211 -162 285 -219 74 -57 169 -130 210 -162 41 -31 164 -126
273 -210 109 -84 203 -153 210 -152 7 0 5 3 -4 7 -13 6 -101 73 -479 365 -41
32 -136 105 -210 162 -74 57 -202 155 -285 219 -82 64 -248 191 -369 283 -188
145 -271 208 -478 367 -21 15 -38 23 -38 17z"/>
<path d="M8625 9300 c-72 -55 -215 -165 -320 -244 -104 -80 -264 -202 -355
-273 -202 -156 -412 -317 -630 -483 -91 -69 -205 -157 -255 -196 -49 -39 -108
-83 -129 -98 -21 -14 -34 -26 -28 -26 6 0 64 41 129 92 65 51 192 149 283 218
225 172 433 331 633 486 92 71 250 192 351 269 101 77 238 182 305 233 67 51
125 90 130 88 8 -5 25 23 19 30 -2 1 -62 -42 -133 -96z"/>
<path d="M4570 8506 c0 -7 6 -13 13 -13 11 0 214 -123 557 -338 302 -190 638
-395 647 -395 5 0 67 37 139 81 71 45 192 120 269 167 77 47 199 122 270 167
354 223 511 318 522 318 7 0 13 4 13 9 0 4 -3 8 -7 8 -6 0 -236 -141 -528
-325 -71 -45 -193 -120 -270 -167 -77 -47 -198 -122 -269 -167 -72 -44 -134
-81 -139 -81 -9 0 -342 203 -647 395 -407 254 -570 352 -570 341z"/>
<path d="M1415 8083 c6 -6 66 -51 135 -100 118 -84 314 -226 640 -462 80 -58
240 -173 355 -256 116 -83 267 -193 338 -243 l127 -92 297 16 c164 8 300 17
302 20 6 6 -9 5 -317 -11 l-282 -16 -127 93 c-71 50 -222 160 -338 243 -115
83 -275 198 -355 256 -715 518 -806 583 -775 552z"/>
<path d="M10090 8019 c-52 -38 -118 -86 -147 -107 -29 -20 -155 -112 -280
-203 -125 -91 -273 -198 -328 -238 -55 -40 -207 -150 -338 -244 -131 -95 -275
-198 -320 -229 l-82 -58 -185 10 c-102 5 -237 11 -300 14 l-115 5 90 -9 c50
-5 185 -14 300 -19 l210 -11 82 58 c45 31 189 134 320 229 131 94 283 204 338
244 186 134 530 383 571 414 49 37 182 133 249 180 27 19 45 35 40 34 -6 0
-53 -32 -105 -70z"/>
<path d="M1840 5884 c-91 -19 -397 -77 -680 -129 -283 -52 -609 -113 -725
-135 -116 -23 -257 -50 -314 -60 -57 -11 -106 -22 -109 -25 -3 -3 -3 -5 -1 -5
8 0 190 34 424 80 116 22 419 79 675 126 563 102 868 162 895 174 31 13 12 11
-165 -26z"/>
<path d="M9600 5912 c8 -5 67 -19 130 -31 63 -11 138 -26 165 -31 69 -14 518
-98 885 -165 286 -52 552 -104 733 -141 43 -9 80 -14 83 -12 2 3 -33 12 -78
21 -249 50 -465 92 -738 142 -359 66 -814 150 -885 165 -27 5 -99 19 -160 31
-60 11 -119 22 -130 25 -15 4 -16 3 -5 -4z"/>
<path d="M8405 3114 c-531 -508 -1160 -842 -1850 -983 -292 -60 -440 -74 -755
-75 -365 0 -612 29 -945 114 -593 149 -1205 488 -1631 902 -55 54 -103 98
-107 98 -3 0 43 -46 101 -103 240 -231 574 -468 870 -616 423 -212 799 -325
1287 -387 213 -27 655 -25 870 5 756 103 1377 373 1950 847 95 78 336 303 325
303 -3 0 -54 -47 -115 -105z"/>
</g>
</svg>
